<svg width="25" height="24" viewBox="0 0 25 24" fill="none" xmlns="http://www.w3.org/2000/svg">
<path d="M10.0067 16.9496C8.55944 16.9496 7.38203 18.0824 7.38203 19.4748C7.38203 20.8672 8.55944 22 10.0067 22C11.4539 22 12.6313 20.8672 12.6313 19.4748C12.6313 18.0824 11.4539 16.9496 10.0067 16.9496ZM10.0067 20.4849C9.42768 20.4849 8.95684 20.0318 8.95684 19.4748C8.95684 18.9177 9.42768 18.4647 10.0067 18.4647C10.5854 18.4647 11.0565 18.9177 11.0565 19.4748C11.0565 20.0318 10.5857 20.4849 10.0067 20.4849Z" fill="#FCFCFC"/>
<path d="M17.7756 16.9496C16.3284 16.9496 15.151 18.0824 15.151 19.4748C15.151 20.8672 16.3284 22 17.7756 22C19.2229 22 20.4003 20.8672 20.4003 19.4748C20.4003 18.0824 19.2229 16.9496 17.7756 16.9496ZM17.7756 20.4849C17.1966 20.4849 16.7258 20.0318 16.7258 19.4748C16.7258 18.9177 17.1966 18.4647 17.7756 18.4647C18.3546 18.4647 18.8255 18.9177 18.8255 19.4748C18.8255 20.0318 18.3546 20.4849 17.7756 20.4849Z" fill="#FCFCFC"/>
<path d="M22.3288 6.93256C22.1792 6.75174 21.9525 6.64646 21.7126 6.64646H7.92534L7.2096 3.16621C7.14687 2.86141 6.89702 2.6243 6.57916 2.56825L3.42958 2.0127C3.001 1.93669 2.59154 2.20969 2.51306 2.62129C2.43458 3.03289 2.71777 3.42758 3.14562 3.50308L5.76869 3.9657L8.07942 15.2026C8.15238 15.5574 8.47601 15.8132 8.85184 15.8132H19.8753C20.242 15.8132 20.5599 15.57 20.6425 15.2258L22.4798 7.57447C22.5338 7.34947 22.4782 7.1131 22.3288 6.93256ZM19.2491 14.2981H9.49853L8.23687 8.16184H20.7223L19.2491 14.2981Z" fill="#FCFCFC"/>
</svg>
